<svg xmlns="http://www.w3.org/2000/svg" version="1.1" xmlns:xlink="http://www.w3.org/1999/xlink" xmlns:svgjs="http://svgjs.com/svgjs" width="24" height="24" x="0" y="0" viewBox="0 0 32 32" style="enable-background:new 0 0 512 512" xml:space="preserve" class=""><g><path d="M16 2a14 14 0 1 0 14 14A14 14 0 0 0 16 2zm0 26a12 12 0 1 1 12-12 12 12 0 0 1-12 12zm7-12a1 1 0 0 1-1 1h-5v5a1 1 0 0 1-2 0v-5h-5a1 1 0 0 1 0-2h5v-5a1 1 0 0 1 2 0v5h5a1 1 0 0 1 1 1z" data-name="Layer 13" fill="#ffffff" data-original="#000000" class="" opacity="1"></path></g></svg>