<svg xmlns="http://www.w3.org/2000/svg" version="1.1" xmlns:xlink="http://www.w3.org/1999/xlink" xmlns:svgjs="http://svgjs.com/svgjs" width="15" height="15" x="0" y="0" viewBox="0 0 24 24" style="enable-background:new 0 0 512 512" xml:space="preserve" class=""><g><path d="M21 4h-3.1A5.009 5.009 0 0 0 13 0h-2a5.009 5.009 0 0 0-4.9 4H3a1 1 0 0 0 0 2h1v13a5.006 5.006 0 0 0 5 5h6a5.006 5.006 0 0 0 5-5V6h1a1 1 0 0 0 0-2ZM11 2h2a3.006 3.006 0 0 1 2.829 2H8.171A3.006 3.006 0 0 1 11 2Zm7 17a3 3 0 0 1-3 3H9a3 3 0 0 1-3-3V6h12Z" fill="#f73636" data-original="#000000" class="" opacity="1"></path><path d="M10 18a1 1 0 0 0 1-1v-6a1 1 0 0 0-2 0v6a1 1 0 0 0 1 1ZM14 18a1 1 0 0 0 1-1v-6a1 1 0 0 0-2 0v6a1 1 0 0 0 1 1Z" fill="#f73636" data-original="#000000" class="" opacity="1"></path></g></svg>