<svg xmlns="http://www.w3.org/2000/svg" version="1.1" xmlns:xlink="http://www.w3.org/1999/xlink" xmlns:svgjs="http://svgjs.com/svgjs" width="18" height="18" x="0" y="0" viewBox="0 0 24 24" style="enable-background:new 0 0 512 512" xml:space="preserve"><g><path d="M19.95 5.536 16.464 2.05A6.954 6.954 0 0 0 11.515 0H7a5.006 5.006 0 0 0-5 5v14a5.006 5.006 0 0 0 5 5h10a5.006 5.006 0 0 0 5-5v-8.515a6.954 6.954 0 0 0-2.05-4.949zM18.536 6.95A5.018 5.018 0 0 1 19.317 8H15a1 1 0 0 1-1-1V2.683a5.018 5.018 0 0 1 1.05.781zM20 19a3 3 0 0 1-3 3H7a3 3 0 0 1-3-3V5a3 3 0 0 1 3-3h4.515c.165 0 .323.032.485.047V7a3 3 0 0 0 3 3h4.953c.015.162.047.32.047.485zm-3.276-5.689a1 1 0 0 1-.035 1.413L13.1 18.138a3 3 0 0 1-4.226-.017l-1.54-1.374a1 1 0 0 1 1.332-1.494l1.585 1.414a1 1 0 0 0 1.456.04l3.6-3.431a1 1 0 0 1 1.417.035z" fill="#d5d5d5" data-original="#000000"></path></g></svg>