<?xml version="1.0" encoding="UTF-8"?>
<svg xmlns="http://www.w3.org/2000/svg" xmlns:xlink="http://www.w3.org/1999/xlink" version="1.1" id="Capa_1" x="0px" y="0px" viewBox="0 0 512 512" style="enable-background:new 0 0 512 512;" xml:space="preserve" width="100" height="100">
<g>
	
		<polyline style="fill:none;stroke:#33CCCC;stroke-width:22;stroke-linecap:round;stroke-linejoin:round;stroke-miterlimit:10;" points="&#10;&#9;&#9;141.667,11 11,11 11,141.667 &#9;"/>
	
		<polyline style="fill:none;stroke:#33CCCC;stroke-width:22;stroke-linecap:round;stroke-linejoin:round;stroke-miterlimit:10;" points="&#10;&#9;&#9;141.667,501 11,501 11,370.333 &#9;"/>
	
		<polyline style="fill:none;stroke:#33CCCC;stroke-width:22;stroke-linecap:round;stroke-linejoin:round;stroke-miterlimit:10;" points="&#10;&#9;&#9;370.333,11 501,11 501,141.667 &#9;"/>
	
		<polyline style="fill:none;stroke:#33CCCC;stroke-width:22;stroke-linecap:round;stroke-linejoin:round;stroke-miterlimit:10;" points="&#10;&#9;&#9;370.333,501 501,501 501,370.333 &#9;"/>
	<path style="fill:none;stroke:#000000;stroke-width:22;stroke-linecap:round;stroke-linejoin:round;stroke-miterlimit:10;" d="&#10;&#9;&#9;M158,125.333C117.167,166.167,43.667,403,92.667,403C125.333,403,207,223.333,223.333,223.333c0,0-49,98,0,98&#10;&#9;&#9;C256,321.333,288.667,256,305,256c0,0-16.333,49,16.333,49S403,223.333,501,223.333"/>
</g>















</svg>
