<svg xmlns="http://www.w3.org/2000/svg" version="1.1" xmlns:xlink="http://www.w3.org/1999/xlink" xmlns:svgjs="http://svgjs.com/svgjs" width="20" height="20" x="0" y="0" viewBox="0 0 24 24" style="enable-background:new 0 0 512 512" xml:space="preserve" class=""><g transform="matrix(-1,-1.2246467991473532e-16,1.2246467991473532e-16,-1,23.997358322143555,24.02999973297119)"><path d="M23.12 9.91 19.25 6a1 1 0 0 0-1.42 0 1 1 0 0 0 0 1.41L21.39 11H1a1 1 0 0 0-1 1 1 1 0 0 0 1 1h20.45l-3.62 3.61a1 1 0 0 0 0 1.42 1 1 0 0 0 1.42 0l3.87-3.88a3 3 0 0 0 0-4.24Z" fill="#073185" data-original="#000000" class=""></path></g></svg>