<?xml version="1.0" encoding="UTF-8" standalone="no"?>
<!-- Created with Inkscape (http://www.inkscape.org/) -->

<svg
   version="1.1"
   id="svg1194"
   xml:space="preserve"
   width="16"
   height="16"
   viewBox="0 0 682.66669 682.66669"
   xmlns="http://www.w3.org/2000/svg"
   xmlns:svg="http://www.w3.org/2000/svg"><defs
     id="defs1198"><clipPath
       clipPathUnits="userSpaceOnUse"
       id="clipPath1208"><path
         d="M 0,512 H 512 V 0 H 0 Z"
         id="path1206" /></clipPath></defs><g
     id="g1200"
     transform="matrix(1.3333333,0,0,-1.3333333,0,682.66667)"><g
       id="g1202"><g
         id="g1204"
         clip-path="url(#clipPath1208)"><g
           id="g1210"
           transform="translate(318.4062,99.1506)"><path
             d="m 0,0 c -23.927,0 -43.323,19.396 -43.323,43.323 v 11.942 h -222.428 c -24.938,0 -45.155,20.216 -45.155,45.155 v 112.859 c 0,24.939 20.217,45.156 45.155,45.156 h 222.428 v 11.952 c 0,23.883 19.435,43.312 43.325,43.312 9.725,0 19.287,-3.345 26.924,-9.416 L 169.738,190.745 c 10.393,-8.262 16.355,-20.616 16.356,-33.893 0,-13.277 -5.96,-25.632 -16.353,-33.896 L 26.926,9.416 C 19.287,3.343 9.726,0 0.002,0 Z"
             style="fill:#f5f5f5;fill-opacity:1;fill-rule:nonzero;stroke:none"
             id="path1212" /></g><g
           id="g1214"
           transform="translate(464.2871,259.8859)"><path
             d="m 0,0 -142.813,113.538 c -3.252,2.586 -8.053,0.269 -8.053,-3.886 V 64.325 c 0,-2.742 -2.223,-4.964 -4.964,-4.964 h -248.835 c -7.612,0 -13.784,-6.172 -13.784,-13.784 v -98.925 c 0,-7.613 6.172,-13.784 13.784,-13.784 h 248.835 c 2.741,0 4.964,-2.223 4.964,-4.965 v -45.327 c 0,-4.155 4.801,-6.471 8.053,-3.886 L 0,-7.771 C 2.499,-5.784 2.499,-1.988 0,0"
             style="fill:#ffe076;fill-opacity:1;fill-rule:nonzero;stroke:none"
             id="path1216" /></g><g
           id="g1218"
           transform="translate(488.1445,289.8957)"><path
             d="m 0,0 -142.813,113.538 c -7.636,6.071 -17.199,9.416 -26.923,9.416 -5.287,0 -10.356,-0.956 -15.044,-2.697 4.296,-1.587 8.349,-3.842 11.967,-6.719 L -30,0 c 10.393,-8.262 16.354,-20.616 16.355,-33.893 0,-13.278 -5.959,-25.632 -16.352,-33.896 l -142.816,-113.54 c -3.623,-2.88 -7.681,-5.137 -11.981,-6.724 4.69,-1.738 9.761,-2.692 15.056,-2.692 h 0.002 c 9.723,0 19.285,3.344 26.923,9.416 L 0.003,-67.789 c 10.393,8.264 16.352,20.618 16.352,33.896 C 16.354,-20.616 10.393,-8.262 0,0"
             style="fill:#eee6ee;fill-opacity:1;fill-rule:nonzero;stroke:none"
             id="path1220" /></g><g
           id="g1222"
           transform="translate(464.2871,259.8859)"><path
             d="m 0,0 -142.813,113.538 c -3.252,2.586 -8.053,0.269 -8.053,-3.886 V 96.089 L -30,0 c 2.499,-1.987 2.499,-5.784 0,-7.771 l -120.866,-96.09 v -13.563 c 0,-4.155 4.801,-6.471 8.053,-3.886 L 0,-7.771 C 2.499,-5.784 2.499,-1.987 0,0"
             style="fill:#ffcf5a;fill-opacity:1;fill-rule:nonzero;stroke:none"
             id="path1224" /></g><g
           id="g1226"
           transform="translate(178.0508,154.4152)"><path
             d="m 0,0 h -125.396 c -24.938,0 -45.155,20.217 -45.155,45.155 v 112.86 c 0,24.938 20.217,45.155 45.155,45.155 H 97.032 v 11.953 c 0,23.882 19.436,43.311 43.325,43.311 9.725,0 19.288,-3.344 26.924,-9.416 L 310.094,135.48 c 10.392,-8.262 16.354,-20.615 16.355,-33.893 0,-13.277 -5.96,-25.632 -16.352,-33.896 L 167.281,-45.849 c -7.638,-6.072 -17.2,-9.416 -26.924,-9.416 h -0.002 c -23.926,0 -43.323,19.397 -43.323,43.324 L 97.032,0 H 30"
             style="fill:none;stroke:#000000;stroke-width:15;stroke-linecap:round;stroke-linejoin:round;stroke-miterlimit:10;stroke-dasharray:none;stroke-opacity:1"
             id="path1228" /></g><g
           id="g1230"
           transform="translate(111.2969,319.2468)"><path
             d="m 0,0 h -51.675 c -7.612,0 -13.784,-6.171 -13.784,-13.784 v -98.925 c 0,-7.613 6.172,-13.784 13.784,-13.784 H 197.16 c 2.741,0 4.964,-2.223 4.964,-4.965 v -45.327 c 0,-4.155 4.801,-6.471 8.053,-3.885 L 352.99,-67.132 c 2.499,1.987 2.499,5.783 0,7.771 L 210.177,54.177 c -3.252,2.586 -8.053,0.27 -8.053,-3.886 V 4.964 C 202.124,2.223 199.901,0 197.16,0 H 30"
             style="fill:none;stroke:#000000;stroke-width:15;stroke-linecap:round;stroke-linejoin:round;stroke-miterlimit:10;stroke-dasharray:none;stroke-opacity:1"
             id="path1232" /></g></g></g></g></svg>
