<svg xmlns="http://www.w3.org/2000/svg" version="1.1" xmlns:xlink="http://www.w3.org/1999/xlink" xmlns:svgjs="http://svgjs.com/svgjs" width="24" height="24" x="0" y="0" viewBox="0 0 512 512" style="enable-background:new 0 0 512 512" xml:space="preserve" class=""><g><path d="M280.1 152.633c-8.284 0-15 6.716-15 15V256c0 8.284 6.716 15 15 15h72.3c8.284 0 15-6.716 15-15s-6.716-15-15-15h-57.3v-73.366c0-8.285-6.716-15.001-15-15.001z" fill="#777587" data-original="#000000" opacity="1"></path><path d="M444.078 92.024C400.278 48.223 342.042 24.1 280.1 24.1c-61.941 0-120.176 24.122-163.977 67.922C75.876 132.27 52.244 184.7 48.675 241H15a15 15 0 0 0-10.607 25.607l80.333 80.334a15 15 0 0 0 21.213 0l80.334-80.334A15.002 15.002 0 0 0 175.667 241h-32.388c7.497-68.862 65.997-122.633 136.821-122.633 36.764 0 71.326 14.316 97.321 40.313 25.996 25.994 40.313 60.556 40.313 97.32 0 75.892-61.742 137.634-137.634 137.634-23.98 0-47.582-6.261-68.22-18.076-.208-.132-.41-.255-.596-.361a47.137 47.137 0 0 0-23.539-6.322c-16.8 0-32.451 9.031-40.845 23.569-6.296 10.903-7.969 23.605-4.71 35.767 3.159 11.79 10.584 21.702 20.97 28.031.312.213.633.416.962.606C199.23 477.162 239.335 487.9 280.1 487.9c61.943 0 120.178-24.122 163.979-67.922S512 317.942 512 256s-24.122-120.178-67.922-163.976zM280.1 457.9c-35.187 0-69.794-9.18-100.15-26.557a15.46 15.46 0 0 0-.799-.496c-3.963-2.288-6.798-5.981-7.982-10.401s-.576-9.038 1.712-13.001c3.053-5.287 8.749-8.57 14.865-8.57 2.858 0 5.693.733 8.283 2.159.167.104.342.21.531.32 25.311 14.576 54.198 22.28 83.54 22.28 92.434 0 167.634-75.2 167.634-167.634 0-44.777-17.438-86.874-49.099-118.533-31.662-31.662-73.758-49.1-118.535-49.1-92.433 0-167.633 75.2-167.633 167.633 0 8.284 6.716 15 15 15h11.987l-44.121 44.12L51.213 271H63.2c8.284 0 15-6.716 15-15 .001-111.328 90.572-201.9 201.9-201.9 53.929 0 104.63 21.002 142.765 59.137C460.999 151.37 482 202.07 482 256c0 111.328-90.572 201.9-201.9 201.9z" fill="#777587" data-original="#000000" opacity="1"></path></g></svg>