<svg xmlns="http://www.w3.org/2000/svg" version="1.1" xmlns:xlink="http://www.w3.org/1999/xlink" xmlns:svgjs="http://svgjs.com/svgjs" width="20" height="20" x="0" y="0" viewBox="0 0 512.001 512.001" style="enable-background:new 0 0 512 512" xml:space="preserve" class=""><g><path d="M490.134 185.472 338.966 34.304c-45.855-45.737-120.076-45.737-165.931 0L21.867 185.472A74.18 74.18 0 0 0 0 238.272v221.397C.047 488.568 23.475 511.976 52.374 512h407.253c28.899-.023 52.326-23.432 52.373-52.331V238.272a74.175 74.175 0 0 0-21.866-52.8zM448 448H341.334v-67.883c0-44.984-36.467-81.451-81.451-81.451h-7.765c-44.984 0-81.451 36.467-81.451 81.451V448H64V238.272a10.773 10.773 0 0 1 3.115-7.552L218.283 79.552c20.825-20.831 54.594-20.835 75.425-.01l.01.01L444.886 230.72a10.777 10.777 0 0 1 3.115 7.552V448z" fill="#073185" data-original="#000000" class=""></path></g></svg>