<svg id="Layer_1" height="20" viewBox="0 0 512 512" width="20" xmlns="http://www.w3.org/2000/svg" xmlns:xlink="http://www.w3.org/1999/xlink" data-name="Layer 1"><linearGradient id="GradientFill_1" gradientUnits="userSpaceOnUse" x1="256" x2="256" y1="482.046" y2="29.954"><stop offset="0" stop-color="#5cc4bb"/><stop offset=".097" stop-color="#50c1c0"/><stop offset=".501" stop-color="#25b4d2"/><stop offset=".815" stop-color="#0aacde"/><stop offset="1" stop-color="#00a9e2"/></linearGradient><path d="m146.135 86.487a16 16 0 0 1 16-16h333.865a16 16 0 0 1 0 32h-333.865a16 16 0 0 1 -16-16zm-33.069 0a56.533 56.533 0 1 1 -56.533-56.533 56.6 56.6 0 0 1 56.533 56.533zm-32 0a24.533 24.533 0 1 0 -24.533 24.534 24.56 24.56 0 0 0 24.533-24.534zm414.934 153.513h-333.865a16 16 0 0 0 0 32h333.865a16 16 0 0 0 0-32zm-382.934 16a56.533 56.533 0 1 1 -56.533-56.534 56.6 56.6 0 0 1 56.533 56.534zm-32 0a24.533 24.533 0 1 0 -24.533 24.533 24.561 24.561 0 0 0 24.533-24.533zm414.934 153.513h-333.865a16 16 0 1 0 0 32h333.865a16 16 0 0 0 0-32zm-382.934 16a56.533 56.533 0 1 1 -56.533-56.533 56.6 56.6 0 0 1 56.533 56.532zm-32 0a24.533 24.533 0 1 0 -24.533 24.534 24.561 24.561 0 0 0 24.533-24.535z" fill="url(#GradientFill_1)"/></svg>