<svg xmlns="http://www.w3.org/2000/svg" version="1.1" xmlns:xlink="http://www.w3.org/1999/xlink" xmlns:svgjs="http://svgjs.com/svgjs" width="20" height="20" x="0" y="0" viewBox="0 0 24 24" style="enable-background:new 0 0 512 512" xml:space="preserve" class=""><g><path d="M20.5 5.002H18V3.501c0-.936-.364-1.814-1.025-2.476S15.436 0 14.502 0h-.003L3.5.005c-.933 0-1.812.365-2.474 1.027S0 2.573 0 3.507l.005 13.622a1.872 1.872 0 0 0 2.41 1.79L6 17.422v4.58h11l4.443 1.863.142.052a1.872 1.872 0 0 0 2.41-1.79L24 8.502c0-1.93-1.57-3.5-3.5-3.5ZM3 3.505a.5.5 0 0 1 .148-.352.496.496 0 0 1 .353-.148l11-.004a.5.5 0 0 1 .498.5v10.504H6.396l-3.392 1.422-.005-11.922Zm17.995 16.92-3.392-1.423H8.999v-1.997h9V8.002h2.5a.5.5 0 0 1 .5.499l-.005 11.924Z" fill="#4177ff" data-original="#000000" opacity="1" class=""></path></g></svg>