<svg height="25" viewBox="0 0 32 32" width="25" fill="currentColor" xmlns="http://www.w3.org/2000/svg">
    <g id="_06_registry" data-name="06 registry">
        <path 
            d="m22 16v-8a1 1 0 0 0 -.29-.71l-5-5a1 1 0 0 0 -.71-.29h-12a1 1 0 0 0 -1 1v22a1 1 0 0 0 1 1h11.7a7 7 0 1 0 6.3-10zm-17-12h10.56l4.44 4.42v7.87a7 7 0 0 0 -5 6.71 6.63 6.63 0 0 0 .08 1h-10.08zm17 24a5 5 0 0 1 -4.72-3.36 4.81 4.81 0 0 1 -.18-.64 4.49 4.49 0 0 1 -.1-1 5 5 0 1 1 5 5zm3-5a1 1 0 0 1 -1 1h-1v1a1 1 0 0 1 -2 0v-1h-1a1 1 0 0 1 0-2h1v-1a1 1 0 0 1 2 0v1h1a1 1 0 0 1 1 1zm-18-15a1 1 0 0 1 1-1h3a1 1 0 0 1 0 2h-3a1 1 0 0 1 -1-1zm0 4a1 1 0 0 1 1-1h9a1 1 0 0 1 0 2h-9a1 1 0 0 1 -1-1zm10 5h-9a1 1 0 0 1 0-2h9a1 1 0 0 1 0 2zm-1-9a1 1 0 1 1 1 1 1 1 0 0 1 -1-1zm-3 0a1 1 0 1 1 1 1 1 1 0 0 1 -1-1z" />
    </g>
</svg>