<svg xmlns="http://www.w3.org/2000/svg" version="1.1" xmlns:xlink="http://www.w3.org/1999/xlink" xmlns:svgjs="http://svgjs.com/svgjs" width="20" height="20" x="0" y="0" viewBox="0 0 24 24" style="enable-background:new 0 0 512 512" xml:space="preserve"><g><path d="M12 20c5.514 0 10-4.486 10-10S17.514 0 12 0 2 4.486 2 10s4.486 10 10 10Zm0-18c4.411 0 8 3.589 8 8s-3.589 8-8 8-8-3.589-8-8 3.589-8 8-8Zm2 10a.77.77 0 0 0-.644-.761l-3.041-.506A2.763 2.763 0 0 1 8 8c0-1.654 1.346-3 3-3V4h2v1c1.654 0 3 1.346 3 3h-2c0-.552-.449-1-1-1h-2c-.551 0-1 .448-1 1a.77.77 0 0 0 .644.761l3.041.506A2.763 2.763 0 0 1 16 12c0 1.654-1.346 3-3 3v1h-2v-1c-1.654 0-3-1.346-3-3h2c0 .552.449 1 1 1h2c.551 0 1-.448 1-1Zm10 8.5c0 1.93-1.57 3.5-3.5 3.5h-17C1.57 24 0 22.43 0 20.5c0-1.547 1.016-2.847 2.41-3.309A12.09 12.09 0 0 0 4.081 19H3.5c-.827 0-1.5.673-1.5 1.5S2.673 22 3.5 22h17c.827 0 1.5-.673 1.5-1.5s-.673-1.5-1.5-1.5h-.581a12.037 12.037 0 0 0 1.671-1.809c1.394.461 2.41 1.762 2.41 3.309Z" fill="#073185" data-original="#000000"></path></g></svg>