<svg id="Icons" height="20" viewBox="0 0 60 60" width="20" xmlns="http://www.w3.org/2000/svg"><path d="m56 0h-52a4 4 0 0 0 -4 4v52a4 4 0 0 0 4 4h52a4 4 0 0 0 4-4v-52a4 4 0 0 0 -4-4zm2 56a2 2 0 0 1 -2 2h-52a2 2 0 0 1 -2-2v-52a2 2 0 0 1 2-2h52a2 2 0 0 1 2 2z"/><path d="m11 6a7 7 0 1 0 7 7 7.008 7.008 0 0 0 -7-7zm0 12a5 5 0 1 1 5-5 5.006 5.006 0 0 1 -5 5z"/><path d="m53 6h-30a3 3 0 0 0 0 6h30a3 3 0 0 0 0-6zm0 4h-30a1 1 0 0 1 0-2h30a1 1 0 0 1 0 2z"/><path d="m23 20h14a3 3 0 0 0 0-6h-14a3 3 0 0 0 0 6zm0-4h14a1 1 0 0 1 0 2h-14a1 1 0 0 1 0-2z"/><path d="m11 23a7 7 0 1 0 7 7 7.008 7.008 0 0 0 -7-7zm0 12a5 5 0 1 1 5-5 5.006 5.006 0 0 1 -5 5z"/><path d="m53 23h-30a3 3 0 0 0 0 6h30a3 3 0 0 0 0-6zm0 4h-30a1 1 0 0 1 0-2h30a1 1 0 0 1 0 2z"/><path d="m23 37h14a3 3 0 0 0 0-6h-14a3 3 0 0 0 0 6zm0-4h14a1 1 0 0 1 0 2h-14a1 1 0 0 1 0-2z"/><path d="m11 40a7 7 0 1 0 7 7 7.009 7.009 0 0 0 -7-7zm0 12a5 5 0 1 1 5-5 5.006 5.006 0 0 1 -5 5z"/><path d="m53 40h-30a3 3 0 0 0 0 6h30a3 3 0 0 0 0-6zm0 4h-30a1 1 0 0 1 0-2h30a1 1 0 0 1 0 2z"/><path d="m37 48h-14a3 3 0 0 0 0 6h14a3 3 0 0 0 0-6zm0 4h-14a1 1 0 0 1 0-2h14a1 1 0 0 1 0 2z"/><path d="m12.2 10.4-2.308 3.078-.185-.185a1 1 0 0 0 -1.414 1.414l1 1a1 1 0 0 0 .707.293h.071a1 1 0 0 0 .729-.4l3-4a1 1 0 1 0 -1.6-1.2z"/><path d="m12.2 27.4-2.308 3.078-.185-.185a1 1 0 0 0 -1.414 1.414l1 1a1 1 0 0 0 .707.293h.071a1 1 0 0 0 .729-.4l3-4a1 1 0 0 0 -1.6-1.2z"/></svg>