<svg xmlns="http://www.w3.org/2000/svg" version="1.1" xmlns:xlink="http://www.w3.org/1999/xlink" xmlns:svgjs="http://svgjs.com/svgjs" width="20" height="20" x="0" y="0" viewBox="0 0 24 24" style="enable-background:new 0 0 512 512" xml:space="preserve" class=""><g><path d="M24 9V3c0-1.654-1.346-3-3-3h-3c-1.654 0-3 1.346-3 3H9c0-1.654-1.346-3-3-3H3C1.346 0 0 1.346 0 3v6h5.755l3.503 7.784A2.975 2.975 0 0 0 9 18v6h9v-6c0-1.654-1.346-3-3-3h-3c-.084 0-.168.004-.25.011L9 8.901V6h6v3h9ZM3 3h3v3H3V3Zm12 18h-3v-3h3v3Zm3-18h3v3h-3V3Z" fill="#4177ff" data-original="#000000" class="" opacity="1"></path></g></svg>