<svg xmlns="http://www.w3.org/2000/svg" version="1.1" xmlns:xlink="http://www.w3.org/1999/xlink" xmlns:svgjs="http://svgjs.com/svgjs" width="20" height="20" x="0" y="0" viewBox="0 0 24 24" style="enable-background:new 0 0 512 512" xml:space="preserve" class=""><g><path d="M22.5 13h-6a1.5 1.5 0 0 1 0-3h6a1.5 1.5 0 0 1 0 3zM14 6a6 6 0 1 0-6 6 6.006 6.006 0 0 0 6-6zm-3 0a3 3 0 1 1-3-3 3 3 0 0 1 3 3zm5 16.5V22a8 8 0 0 0-16 0v.5a1.5 1.5 0 0 0 3 0V22a5 5 0 0 1 10 0v.5a1.5 1.5 0 0 0 3 0z" fill="#ffffff" data-original="#000000"></path></g></svg>