<svg xmlns="http://www.w3.org/2000/svg" version="1.1" xmlns:xlink="http://www.w3.org/1999/xlink" xmlns:svgjs="http://svgjs.com/svgjs" width="15" height="15" x="0" y="0" viewBox="0 0 24 24" style="enable-background:new 0 0 512 512" xml:space="preserve" class=""><g><path d="M0 23v-7a9.01 9.01 0 0 1 9-9h4.83V5.414A2 2 0 0 1 17.244 4l5.88 5.879a3 3 0 0 1 0 4.242L17.244 20a2 2 0 0 1-3.414-1.414V17H8a6.006 6.006 0 0 0-6 6 1 1 0 0 1-2 0ZM15.83 8a1 1 0 0 1-1 1H9a7.008 7.008 0 0 0-7 7v1.714A7.984 7.984 0 0 1 8 15h6.83a1 1 0 0 1 1 1v2.586l5.879-5.879a1 1 0 0 0 0-1.414L15.83 5.414Z" fill="#4d459b" data-original="#000000" opacity="1"></path></g></svg>