<svg height="17" viewBox="0 0 64 64" width="17" xmlns="http://www.w3.org/2000/svg"><g id="Layer_5" fill="#e81542" data-name="Layer 5"><path d="m51.45 21.21a19.46 19.46 0 0 0 -32.95-13.27 19.31 19.31 0 0 0 -6 14 1.5 1.5 0 0 0 1.5 1.5h10.6a1.5 1.5 0 0 0 1.5-1.44 5.89 5.89 0 0 1 5.9-5.93h.24a6 6 0 0 1 5.65 5.66 5.91 5.91 0 0 1 -2.89 5.27 20.25 20.25 0 0 0 -9.81 17.21 1.5 1.5 0 0 0 1.5 1.5h10.59a1.5 1.5 0 0 0 1.5-1.5 6.53 6.53 0 0 1 3.22-5.57 19.49 19.49 0 0 0 9.45-17.43z"/><circle cx="32" cy="54.72" r="6.78"/></g></svg>