<svg xmlns="http://www.w3.org/2000/svg" version="1.1" xmlns:xlink="http://www.w3.org/1999/xlink" width="20" height="20" x="0" y="0" viewBox="0 0 24 24" style="enable-background:new 0 0 512 512" xml:space="preserve"><g><path d="M12 0C5.383 0 0 5.383 0 12s5.383 12 12 12 12-5.383 12-12S18.617 0 12 0Zm0 22C6.486 22 2 17.514 2 12S6.486 2 12 2s10 4.486 10 10-4.486 10-10 10Zm-2-12c0 .378.271.698.644.76l3.041.507A2.761 2.761 0 0 1 16 14c0 1.654-1.346 3-3 3v2h-2v-2c-1.654 0-3-1.346-3-3h2a1 1 0 0 0 1 1h2a1 1 0 0 0 1-1 .768.768 0 0 0-.644-.76l-3.041-.507A2.761 2.761 0 0 1 8 10c0-1.654 1.346-3 3-3V5h2v2c1.654 0 3 1.346 3 3h-2c0-.551-.448-1-1-1h-2c-.552 0-1 .449-1 1Z" fill="#ffffff" data-original="#000000"></path></g></svg>